<svg xmlns="http://www.w3.org/2000/svg" width="16.1" height="9.9" viewBox="0 0 16.1 9.9">
  <g id="icon-nav" transform="translate(-1.95 -5.55)">
    <path id="Rectangle_4" d="M2.82,5.6H17.18a.824.824,0,0,1,.82.82h0a.824.824,0,0,1-.82.82H2.82A.824.824,0,0,1,2,6.42H2A.824.824,0,0,1,2.82,5.6Z" fill="#2e2e2e" stroke="#2e2e2e" stroke-width="0.1"/>
    <path id="Rectangle_5" d="M2.82,9.68h8.55a.824.824,0,0,1,.82.82h0a.824.824,0,0,1-.82.82H2.82A.824.824,0,0,1,2,10.5H2A.824.824,0,0,1,2.82,9.68Z" fill="#2e2e2e" stroke="#2e2e2e" stroke-width="0.1"/>
    <path id="Rectangle_6" d="M2.82,13.76H17.18a.824.824,0,0,1,.82.82h0a.824.824,0,0,1-.82.82H2.82A.824.824,0,0,1,2,14.58H2A.824.824,0,0,1,2.82,13.76Z" fill="#2e2e2e" stroke="#2e2e2e" stroke-width="0.1"/>
  </g>
</svg>
